<svg width="117" height="66" viewBox="0 0 117 66" fill="none" xmlns="http://www.w3.org/2000/svg">
<g clip-path="url(#clip0_3805_37)">
<path d="M30.5528 54.3066C30.3098 54.0366 30.0948 53.8196 29.9428 53.6706L29.7648 53.4976L29.7058 53.4346C29.7058 53.4346 29.6328 53.5266 29.5308 53.6876C29.3901 53.9066 29.2616 54.1333 29.1458 54.3666C28.7829 55.0715 28.5531 55.8373 28.4678 56.6256C28.4253 57.0761 28.4694 57.5306 28.5978 57.9646C28.7292 58.4394 28.9454 58.8866 29.2358 59.2846C29.3118 59.3906 29.3948 59.4946 29.4828 59.5966C29.581 59.6977 29.6849 59.7932 29.7938 59.8826C30.0271 60.0778 30.2763 60.2531 30.5388 60.4066C31.1654 60.7656 31.8408 61.0318 32.5438 61.1966C32.9485 60.9867 33.2716 60.6478 33.4618 60.2335C33.652 59.8192 33.6985 59.3533 33.5938 58.9096C33.4935 58.4626 33.3202 58.0352 33.0808 57.6446C33.0198 57.5396 32.9538 57.4356 32.8858 57.3306C32.8178 57.2256 32.7648 57.1156 32.6998 57.0106C32.5665 56.7979 32.4265 56.5899 32.2798 56.3866C31.99 55.9943 31.6799 55.6175 31.3508 55.2576C31.0738 54.8956 30.7988 54.5736 30.5508 54.3056" fill="white"/>
<path d="M26.1599 52.5791L26.0599 52.2651C25.9267 51.8635 25.7653 51.4719 25.5769 51.0931C25.4909 50.9151 25.3919 50.7481 25.3149 50.5841C25.2379 50.4201 25.1739 50.2631 25.1079 50.1221C24.959 49.8073 24.7921 49.5015 24.6079 49.2061C24.311 49.4637 24.0302 49.7392 23.7669 50.0311C23.5007 50.3225 23.2532 50.6304 23.0259 50.9531C22.7644 51.3092 22.5484 51.6965 22.3829 52.1061C22.2192 52.5166 22.1181 52.9495 22.0829 53.3901C22.0641 53.6119 22.0681 53.835 22.0949 54.0561C22.1056 54.1684 22.1254 54.2798 22.1539 54.3891C22.1878 54.4974 22.2282 54.6036 22.2749 54.7071C22.4858 55.1667 22.7927 55.5758 23.1749 55.9071C23.397 56.1075 23.642 56.2811 23.9049 56.4241C24.219 56.5874 24.5453 56.7261 24.8809 56.8391C25.3219 56.6887 25.7104 56.4147 26 56.0496C26.2896 55.6845 26.4679 55.2438 26.5139 54.7801C26.5657 54.3586 26.5444 53.9313 26.4509 53.5171C26.405 53.3033 26.3459 53.0925 26.2739 52.8861C26.2379 52.7861 26.2009 52.6791 26.1589 52.5761" fill="white"/>
<path d="M17.8778 51.5509C18.122 51.7412 18.3831 51.9085 18.6578 52.0509C19.1418 51.9465 19.5952 51.7321 19.983 51.4243C20.3707 51.1165 20.6824 50.7235 20.8938 50.2759C20.9698 50.0909 21.0498 49.8919 21.1128 49.6889C21.1732 49.4878 21.219 49.2826 21.2498 49.0749C21.3054 48.667 21.3185 48.2545 21.2888 47.8439C21.2994 47.4522 21.279 47.0604 21.2278 46.6719C21.1838 46.3089 21.1048 45.9829 21.0858 45.6919C21.0499 45.3755 20.9914 45.062 20.9108 44.7539C20.5436 44.969 20.1874 45.2027 19.8438 45.4539C19.4943 45.7035 19.1576 45.9705 18.8348 46.2539C18.6618 46.4079 18.4758 46.5749 18.3188 46.7449C18.1618 46.9149 18.0038 47.0949 17.8618 47.2799C17.572 47.6448 17.3291 48.0446 17.1388 48.4699C17.049 48.6757 16.9771 48.8888 16.9238 49.1069C16.89 49.3165 16.8816 49.5293 16.8988 49.7409C16.9338 50.1867 17.0848 50.6155 17.3368 50.9849C17.4828 51.2035 17.6663 51.3944 17.8788 51.5489" fill="white"/>
<path d="M13.2631 46.2514C13.4323 46.4597 13.6238 46.6488 13.8341 46.8154C14.8889 46.6959 15.8593 46.1814 16.5501 45.3754C16.6221 45.2904 16.6871 45.2024 16.7501 45.1144C16.8131 45.0264 16.8821 44.9324 16.9501 44.8384C17.0703 44.6532 17.1792 44.4609 17.2761 44.2624C17.4588 43.8843 17.6016 43.4882 17.7021 43.0804C17.8258 42.7062 17.924 42.324 17.9961 41.9364C18.0311 41.7564 18.0551 41.5844 18.0771 41.4224C18.0892 41.2695 18.1093 41.1173 18.1371 40.9664C18.1925 40.6548 18.2259 40.3397 18.2371 40.0234C18.2371 40.0234 17.7301 40.2304 17.0141 40.6034C16.6551 40.7904 16.2441 41.0174 15.8141 41.2824C15.3857 41.5488 14.977 41.8455 14.5911 42.1704C14.2046 42.491 13.8509 42.8491 13.5351 43.2394C13.385 43.422 13.2527 43.6186 13.1401 43.8264C13.0442 44.0183 12.9678 44.2193 12.9121 44.4264C12.8011 44.8295 12.8049 45.2555 12.9231 45.6564C12.9925 45.8762 13.1047 46.0801 13.2531 46.2564" fill="white"/>
<path d="M14.3222 39.7503C14.6877 39.4472 15.0227 39.1089 15.3222 38.7403C15.5981 38.3912 15.8427 38.0184 16.0532 37.6263C16.4322 36.9767 16.7457 36.291 16.9892 35.5793C17.2062 35.0223 17.3112 34.6533 17.3112 34.6533C17.3112 34.6533 16.7732 34.8193 15.9972 35.1273C15.6152 35.2803 15.1512 35.4723 14.6972 35.6933C14.2224 35.9245 13.7598 36.1799 13.3112 36.4583C12.4266 36.9458 11.6742 37.6416 11.1192 38.4853C10.906 38.8435 10.7908 39.2515 10.7852 39.6683C10.8236 40.1153 11.0085 40.5371 11.3112 40.8683C12.4105 40.8374 13.469 40.4444 14.3222 39.7503Z" fill="white"/>
<path d="M12.6131 34.6181C12.8212 34.4872 13.0215 34.3443 13.2131 34.1901C13.4131 34.0391 13.6041 33.8751 13.7821 33.7101C14.1266 33.3878 14.4446 33.0384 14.7331 32.6651C14.8721 32.4871 14.9981 32.3131 15.1211 32.1361C15.2441 31.9591 15.3681 31.7781 15.4781 31.6041C15.6971 31.2611 15.8781 30.9381 16.0231 30.6621C16.3021 30.1071 16.4631 29.7451 16.4631 29.7451C16.4631 29.7451 15.9141 29.8821 15.1261 30.1511C14.1631 30.4762 13.2241 30.8685 12.3161 31.3251C11.8253 31.5737 11.3522 31.8557 10.9001 32.1691C10.4985 32.451 10.1336 32.7819 9.81406 33.1541C9.533 33.471 9.33507 33.8528 9.23806 34.2651C9.17666 34.6763 9.25557 35.0962 9.46206 35.4571C10.5735 35.5039 11.6729 35.2112 12.6141 34.6181" fill="white"/>
<path d="M8.90684 29.6959C10.0037 29.7945 11.1052 29.5666 12.0728 29.0409C12.5148 28.8045 12.9322 28.5248 13.3188 28.2059C13.6987 27.9109 14.0564 27.5884 14.3888 27.2409C14.7118 26.9129 14.9728 26.5739 15.2418 26.2729C15.5108 25.9719 15.7278 25.6849 15.9058 25.4409C16.0838 25.1969 16.2208 24.9929 16.3148 24.8499L16.4638 24.6299L16.0898 24.7009C15.8468 24.7459 15.5188 24.8219 15.1208 24.9209C14.1407 25.1668 13.1787 25.4802 12.2418 25.8589C11.9838 25.9649 11.7268 26.0799 11.4758 26.1999C11.2248 26.3199 10.9968 26.4519 10.7708 26.5899C10.3409 26.8437 9.94137 27.1456 9.57984 27.4899C9.25481 27.7445 9.01598 28.0929 8.89577 28.4879C8.77555 28.8829 8.77977 29.3054 8.90784 29.6979" fill="white"/>
<path d="M12.9438 22.9501C13.8435 22.5523 14.6911 22.0459 15.4678 21.4421C15.6488 21.3041 15.8138 21.1621 15.9808 21.0241C16.1478 20.8861 16.3228 20.7591 16.4808 20.6301C16.7918 20.3731 17.0548 20.1301 17.2728 19.9241C17.4908 19.7181 17.6728 19.5491 17.8018 19.4311L18.0018 19.2461C18.0018 19.2461 17.4618 19.2801 16.6428 19.3891C15.6481 19.5246 14.665 19.7346 13.7018 20.0171C13.1656 20.1708 12.6402 20.3595 12.1288 20.5821C11.6699 20.791 11.2342 21.0474 10.8288 21.3471C10.648 21.4832 10.4784 21.6337 10.3218 21.7971C10.1763 21.9404 10.0562 22.1075 9.96677 22.2911C9.79191 22.6296 9.73692 23.0173 9.81077 23.3911C10.8782 23.5324 11.9639 23.3781 12.9498 22.9451" fill="white"/>
<path d="M20.379 14.6628C19.979 14.6688 19.501 14.6888 18.979 14.7248C18.457 14.7608 17.931 14.8248 17.374 14.9178C16.8151 15.0065 16.2616 15.126 15.716 15.2758C15.444 15.3528 15.179 15.4338 14.921 15.5268C14.6812 15.6162 14.4474 15.7207 14.221 15.8398C13.358 16.2968 12.657 16.8918 12.627 17.6488C13.6447 17.8883 14.7072 17.8586 15.71 17.5628C16.7006 17.3047 17.6575 16.9312 18.561 16.4498C19.3189 16.0863 20.056 15.681 20.769 15.2358C21.353 14.9038 21.695 14.6698 21.695 14.6698C21.695 14.6698 21.177 14.6448 20.37 14.6628" fill="white"/>
<path d="M25.528 10.2494C24.5452 10.1825 23.5592 10.1788 22.576 10.2384C21.4568 10.2924 20.3484 10.4838 19.276 10.8084C18.4049 11.0377 17.652 11.5864 17.167 12.3454C17.6156 12.5303 18.0917 12.6397 18.576 12.6694C19.0936 12.7059 19.6136 12.6898 20.128 12.6214C20.6573 12.5507 21.1814 12.4454 21.697 12.3064C22.212 12.1694 22.697 12.0064 23.212 11.8434C24.212 11.5124 25.068 11.1374 25.723 10.8524C26.378 10.5674 26.798 10.3664 26.798 10.3664C26.798 10.3664 26.298 10.3044 25.521 10.2544" fill="white"/>
<path d="M24.7628 6.17194C23.9088 6.39073 23.1655 6.91657 22.6748 7.64894C24.3158 8.38194 26.6658 7.83594 28.5448 7.14894C29.3875 6.84798 30.2142 6.5042 31.0218 6.11894C31.6528 5.81894 32.0358 5.60594 32.0358 5.60594C30.6751 5.49169 29.3076 5.48467 27.9458 5.58494C26.8643 5.64571 25.7948 5.84294 24.7628 6.17194Z" fill="white"/>
<path d="M39.531 64.214C36.421 63.5548 33.3546 62.7049 30.349 61.669C23.6077 58.778 17.716 54.2139 13.232 48.409C10.823 45.0961 9.19124 41.283 8.458 37.253C7.60581 33.9279 7.32814 30.4816 7.637 27.063C8.881 17.681 17.209 9.5 28.122 2.727C26.6277 3.30867 25.1833 4.01099 23.803 4.827C23.9021 4.70995 23.9907 4.58447 24.068 4.452C24.4068 3.84393 24.5864 3.16007 24.59 2.464C24.5833 1.62113 24.4244 0.786397 24.121 0C24.121 0 23.759 0.287 23.272 0.739C22.6872 1.26693 22.1517 1.84699 21.672 2.472C20.714 3.831 20.253 5.33 21.965 6.044C20.239 7.2 18.659 8.3 17.215 9.418C17.236 9.371 17.254 9.324 17.27 9.275C17.5054 8.59575 17.5504 7.86499 17.4 7.162C17.2827 6.54954 17.1038 5.9505 16.866 5.374C16.7603 5.11495 16.639 4.8625 16.503 4.618C16.503 4.618 16.162 4.942 15.709 5.446C15.1913 6.05315 14.741 6.71469 14.366 7.419C14.1711 7.77612 14.0318 8.16088 13.953 8.56C13.8719 8.91421 13.8624 9.28106 13.925 9.639C13.9893 9.97693 14.1571 10.2865 14.405 10.525C14.6459 10.7458 14.9289 10.9159 15.237 11.025C14.0317 12.0561 12.9053 13.1759 11.867 14.375C11.861 14.309 11.853 14.242 11.848 14.175C11.8286 13.9887 11.7952 13.8042 11.748 13.623C11.6496 13.2481 11.5157 12.8834 11.348 12.534C11.182 12.183 10.977 11.834 10.804 11.534C10.631 11.234 10.448 10.955 10.286 10.722C9.964 10.256 9.715 9.965 9.715 9.965C9.715 9.965 9.44 10.345 9.106 10.927C8.73836 11.6287 8.46468 12.3758 8.292 13.149C8.13657 13.9427 8.23597 14.7652 8.576 15.499C8.92283 16.0679 9.4695 16.4869 10.109 16.674C9.39126 17.734 8.7519 18.8449 8.196 19.998C8.121 19.86 8.037 19.727 7.946 19.592C7.70913 19.2234 7.44542 18.8728 7.157 18.543C6.61244 17.9344 6.02923 17.3616 5.411 16.828C4.924 16.393 4.568 16.128 4.568 16.128C4.568 16.128 4.535 16.234 4.474 16.419C4.39107 16.6697 4.3328 16.928 4.3 17.19C4.254 17.509 4.216 17.883 4.2 18.284C4.193 18.484 4.192 18.69 4.2 18.898C4.21922 19.1108 4.24993 19.3225 4.292 19.532C4.42175 20.4038 4.81783 21.2141 5.426 21.852C5.87383 22.3004 6.43189 22.6229 7.044 22.787C6.70164 23.8095 6.43426 24.8556 6.244 25.917C6.201 25.869 6.156 25.817 6.109 25.776C5.938 25.603 5.75 25.436 5.561 25.276C5.372 25.116 5.187 24.952 4.991 24.797C4.26262 24.2357 3.49832 23.7226 2.703 23.261C2.376 23.07 2.094 22.918 1.908 22.81L1.608 22.647C1.60235 22.7469 1.60235 22.8471 1.608 22.947C1.623 23.132 1.645 23.398 1.689 23.717C1.733 24.036 1.798 24.407 1.895 24.8C2.00337 25.2201 2.1531 25.6284 2.342 26.019C2.53568 26.4409 2.77012 26.8428 3.042 27.219C3.33601 27.6016 3.68009 27.943 4.065 28.234C4.60807 28.6425 5.23579 28.9241 5.902 29.058C5.85337 30.1552 5.87308 31.2543 5.961 32.349C5.811 32.204 5.65 32.061 5.483 31.921C5.07221 31.5805 4.63963 31.2671 4.188 30.983C3.3449 30.4571 2.46799 29.9874 1.563 29.577C0.81 29.23 0.313 29.029 0.313 29.029C0.370805 29.385 0.459472 29.7353 0.578 30.076C0.678 30.387 0.813 30.748 0.978 31.133C1.061 31.326 1.152 31.524 1.255 31.726C1.358 31.928 1.484 32.141 1.614 32.348C1.88019 32.7763 2.18371 33.1802 2.521 33.555C2.69322 33.745 2.87619 33.9249 3.069 34.094C3.27607 34.2638 3.49313 34.4211 3.719 34.565C4.50098 35.0667 5.40437 35.347 6.333 35.376C6.56954 36.6829 6.8726 37.9769 7.241 39.253C7.209 39.217 7.179 39.184 7.141 39.153C6.29 38.3904 5.34135 37.7444 4.32 37.232C3.79 36.955 3.249 36.703 2.738 36.478C2.227 36.253 1.772 36.056 1.363 35.897C0.553 35.572 0 35.389 0 35.389C0.121676 35.7682 0.267302 36.1393 0.436 36.5C0.860226 37.34 1.37459 38.1313 1.97 38.86C2.34665 39.2883 2.75587 39.6868 3.194 40.052C3.63883 40.4327 4.13048 40.755 4.657 41.011C5.68573 41.53 6.8454 41.7319 7.989 41.591C8.044 41.755 8.102 41.916 8.16 42.077C8.57629 43.2464 9.0797 44.3829 9.666 45.477C9.556 45.392 9.44 45.308 9.321 45.227C9.078 45.06 8.813 44.903 8.537 44.751C8.261 44.599 7.997 44.451 7.708 44.305C7.134 44.019 6.517 43.756 5.897 43.519C5.277 43.282 4.64 43.064 4.082 42.871C3.524 42.678 2.982 42.515 2.531 42.379C1.615 42.106 1 41.957 1 41.957C1 41.957 1.262 42.417 1.734 43.081C2.02821 43.4725 2.34544 43.8462 2.684 44.2C3.08347 44.6294 3.5061 45.0367 3.95 45.42C4.46311 45.8284 5.00262 46.2026 5.565 46.54C5.848 46.709 6.136 46.866 6.43 47.008C6.578 47.0787 6.72567 47.1453 6.873 47.208C7.033 47.27 7.19 47.329 7.346 47.381C8.50039 47.8085 9.75387 47.8925 10.955 47.623C11.8268 48.9213 12.8084 50.1425 13.889 51.273C13.711 51.173 13.526 51.079 13.331 50.991C13.026 50.851 12.702 50.72 12.37 50.591C12.055 50.462 11.724 50.343 11.385 50.227C10.71 49.999 9.994 49.8 9.285 49.621C8.929 49.534 8.574 49.451 8.225 49.372L7.237 49.149C6.602 49.01 6.007 48.893 5.499 48.8C4.479 48.613 3.799 48.52 3.799 48.52C3.799 48.52 4.216 48.971 4.918 49.614C5.33737 49.9936 5.7817 50.3448 6.248 50.665C6.766 51.038 7.341 51.422 7.948 51.786C8.60517 52.1472 9.283 52.4694 9.978 52.751C10.324 52.892 10.678 53.019 11.023 53.13C11.3689 53.2451 11.722 53.3373 12.08 53.406C13.339 53.7164 14.6619 53.6447 15.88 53.2C16.98 54.212 18.134 55.233 19.359 56.231L19.209 56.184C19.028 56.131 18.846 56.084 18.66 56.036C18.474 55.988 18.303 55.936 18.118 55.893C17.752 55.801 17.374 55.72 16.99 55.644C16.224 55.497 15.428 55.379 14.644 55.284C13.844 55.195 13.119 55.103 12.419 55.039C11.719 54.975 11.079 54.924 10.528 54.886C9.428 54.812 8.706 54.795 8.706 54.795C8.706 54.795 9.293 55.207 10.238 55.776C10.474 55.918 10.732 56.076 11.008 56.229C11.284 56.382 11.615 56.537 11.942 56.695C12.603 57.009 13.325 57.328 14.073 57.623C14.262 57.696 14.446 57.769 14.642 57.837C14.838 57.905 15.042 57.965 15.242 58.026C15.642 58.148 16.049 58.26 16.45 58.357C17.2212 58.5539 18.0061 58.6926 18.798 58.772C19.9238 58.9051 21.0651 58.7588 22.121 58.346C23.121 59.065 24.172 59.756 25.262 60.409C24.932 60.373 24.597 60.341 24.262 60.316C23.437 60.255 22.569 60.245 21.778 60.216C20.173 60.179 18.633 60.23 17.493 60.289C16.922 60.318 16.454 60.35 16.129 60.374L15.629 60.411L15.755 60.474C15.838 60.516 15.969 60.574 16.132 60.641C16.458 60.784 16.932 60.983 17.507 61.209C18.082 61.435 18.76 61.695 19.507 61.95C20.274 62.186 21.107 62.417 21.965 62.623C22.391 62.723 22.826 62.823 23.254 62.905C23.472 62.949 23.687 62.988 23.903 63.027C24.119 63.066 24.345 63.088 24.56 63.115C25.3935 63.2185 26.2331 63.2656 27.073 63.256C28.0115 63.267 28.943 63.0941 29.815 62.747C30.2223 62.9237 30.636 63.0937 31.056 63.257C31.1255 63.2889 31.2017 63.3029 31.278 63.298C33.327 64.0536 35.438 64.6291 37.587 65.018" fill="white"/>
<path d="M42.6108 14.7356V29.0156H45.7478V14.7356H42.6108ZM50.6478 24.2756H47.6108C47.5776 25.0638 47.7427 25.8477 48.0908 26.5556C48.4114 27.1804 48.8737 27.7214 49.4408 28.1356C50.0309 28.5598 50.6959 28.8686 51.4008 29.0456C52.1486 29.2399 52.9182 29.3374 53.6908 29.3356C54.5596 29.3498 55.4257 29.2353 56.2608 28.9956C56.9364 28.8021 57.5681 28.4795 58.1208 28.0456C58.6062 27.6577 58.9933 27.161 59.2508 26.5956C59.5068 26.0232 59.6364 25.4025 59.6308 24.7756C59.6597 24.0829 59.4822 23.3972 59.1208 22.8056C58.8056 22.3173 58.3938 21.8987 57.9108 21.5756C57.4763 21.2841 57.0012 21.0583 56.5008 20.9056C56.0275 20.7656 55.6575 20.6689 55.3908 20.6156C54.4975 20.3889 53.7742 20.2022 53.2208 20.0556C52.7758 19.9462 52.3409 19.799 51.9208 19.6156C51.6698 19.5182 51.4514 19.3518 51.2908 19.1356C51.1756 18.9281 51.1203 18.6927 51.1308 18.4556C51.1202 18.188 51.1899 17.9233 51.3308 17.6956C51.4644 17.4954 51.638 17.3251 51.8408 17.1956C52.0516 17.0605 52.2856 16.9656 52.5308 16.9156C52.7807 16.8626 53.0354 16.8358 53.2908 16.8356C53.65 16.8329 54.0084 16.8664 54.3608 16.9356C54.6691 16.995 54.964 17.1102 55.2308 17.2756C55.4877 17.4393 55.6978 17.6667 55.8408 17.9356C56.0072 18.2649 56.0994 18.6268 56.1108 18.9956H59.1478C59.1697 18.264 59.0081 17.5387 58.6778 16.8856C58.3732 16.3154 57.938 15.8255 57.4078 15.4556C56.8541 15.0731 56.2333 14.7984 55.5778 14.6456C54.8737 14.4769 54.1519 14.3929 53.4278 14.3956C52.7791 14.3967 52.1335 14.4842 51.5078 14.6556C50.8915 14.8179 50.3091 15.0888 49.7878 15.4556C49.285 15.8113 48.8654 16.2719 48.5578 16.8056C48.2335 17.3889 48.0712 18.0484 48.0878 18.7156C48.0708 19.2943 48.198 19.8682 48.4578 20.3856C48.6948 20.8341 49.0257 21.2263 49.4278 21.5356C49.8424 21.8503 50.3005 22.1029 50.7878 22.2856C51.2976 22.4799 51.8185 22.6435 52.3478 22.7756C52.8678 22.9222 53.3812 23.0556 53.8878 23.1756C54.3509 23.282 54.8054 23.4224 55.2478 23.5956C55.6073 23.7302 55.9369 23.934 56.2178 24.1956C56.3414 24.318 56.4381 24.4648 56.5018 24.6266C56.5655 24.7885 56.5948 24.9618 56.5878 25.1356C56.6007 25.4557 56.5017 25.7704 56.3078 26.0256C56.1197 26.2601 55.8802 26.4482 55.6078 26.5756C55.3231 26.7103 55.0197 26.8014 54.7078 26.8456C54.4099 26.8905 54.1091 26.9139 53.8078 26.9156C53.4031 26.9166 52.9999 26.8662 52.6078 26.7656C52.2454 26.6767 51.9028 26.5206 51.5978 26.3056C51.307 26.094 51.0705 25.8164 50.9078 25.4956C50.7242 25.1158 50.635 24.6972 50.6478 24.2756ZM64.0078 21.9356C64.0062 21.3228 64.0767 20.7119 64.2178 20.1156C64.346 19.5565 64.5729 19.0249 64.8878 18.5456C65.1929 18.0871 65.6047 17.7097 66.0878 17.4456C66.6495 17.1757 67.2647 17.0355 67.8878 17.0355C68.511 17.0355 69.1262 17.1757 69.6878 17.4456C70.171 17.7097 70.5828 18.0871 70.8878 18.5456C71.2028 19.0249 71.4297 19.5565 71.5578 20.1156C71.699 20.7119 71.7694 21.3228 71.7678 21.9356C71.7691 22.5253 71.6986 23.1129 71.5578 23.6856C71.4271 24.2313 71.2002 24.7494 70.8878 25.2156C70.5806 25.6695 70.1691 26.0432 69.6878 26.3056C69.1262 26.5755 68.511 26.7156 67.8878 26.7156C67.2647 26.7156 66.6495 26.5755 66.0878 26.3056C65.6066 26.0432 65.1951 25.6695 64.8878 25.2156C64.5755 24.7494 64.3486 24.2313 64.2178 23.6856C64.0781 23.1128 64.0086 22.5251 64.0108 21.9356H64.0078ZM60.8678 21.9356C60.8596 22.9259 61.022 23.9103 61.3478 24.8456C61.6482 25.7123 62.1173 26.511 62.7278 27.1956C63.3423 27.8726 64.0963 28.4082 64.9378 28.7656C66.8345 29.5255 68.9511 29.5255 70.8478 28.7656C71.6854 28.4064 72.4358 27.8709 73.0478 27.1956C73.6584 26.511 74.1274 25.7123 74.4278 24.8456C74.7537 23.9103 74.9161 22.9259 74.9078 21.9356C74.9171 20.9255 74.7548 19.9213 74.4278 18.9656C74.1278 18.0867 73.659 17.2748 73.0478 16.5756C72.4391 15.8891 71.6884 15.3432 70.8478 14.9756C68.9537 14.2023 66.832 14.2023 64.9378 14.9756C64.0933 15.3413 63.339 15.8874 62.7278 16.5756C62.1167 17.2748 61.6479 18.0867 61.3478 18.9656C61.0219 19.9214 60.8606 20.9257 60.8708 21.9356H60.8678Z" fill="#D5D5D5"/>
<path d="M85.9482 39.8135V41H81.0361V39.9941L83.3311 37.5625C83.5459 37.3151 83.7168 37.097 83.8438 36.9082C83.974 36.7194 84.0684 36.5485 84.127 36.3955C84.1855 36.2393 84.2148 36.096 84.2148 35.9658C84.2148 35.7542 84.1807 35.5752 84.1123 35.4287C84.0472 35.2822 83.9512 35.1699 83.8242 35.0918C83.6973 35.0137 83.5426 34.9746 83.3604 34.9746C83.165 34.9746 82.9974 35.0251 82.8574 35.126C82.7174 35.2269 82.61 35.3669 82.5352 35.5459C82.4603 35.7217 82.4229 35.9219 82.4229 36.1465H80.8896C80.8896 35.7135 80.9938 35.3197 81.2021 34.9648C81.4105 34.6068 81.7018 34.3219 82.0762 34.1104C82.4505 33.8955 82.8883 33.7881 83.3896 33.7881C83.904 33.7881 84.3353 33.8695 84.6836 34.0322C85.0319 34.195 85.2956 34.4277 85.4746 34.7305C85.6536 35.0332 85.7432 35.3978 85.7432 35.8242C85.7432 36.0651 85.7041 36.2979 85.626 36.5225C85.5511 36.7471 85.4421 36.9701 85.2988 37.1914C85.1556 37.4128 84.9831 37.639 84.7812 37.8701C84.5794 38.098 84.3516 38.3389 84.0977 38.5928L83.0234 39.8135H85.9482Z" fill="#D5D5D5"/>
<path d="M80.1768 39.8135V41H75.2646V39.9941L77.5596 37.5625C77.7744 37.3151 77.9453 37.097 78.0723 36.9082C78.2025 36.7194 78.2969 36.5485 78.3555 36.3955C78.4141 36.2393 78.4434 36.096 78.4434 35.9658C78.4434 35.7542 78.4092 35.5752 78.3408 35.4287C78.2757 35.2822 78.1797 35.1699 78.0527 35.0918C77.9258 35.0137 77.7712 34.9746 77.5889 34.9746C77.3936 34.9746 77.2259 35.0251 77.0859 35.126C76.946 35.2269 76.8385 35.3669 76.7637 35.5459C76.6888 35.7217 76.6514 35.9219 76.6514 36.1465H75.1182C75.1182 35.7135 75.2223 35.3197 75.4307 34.9648C75.639 34.6068 75.9303 34.3219 76.3047 34.1104C76.679 33.8955 77.1169 33.7881 77.6182 33.7881C78.1325 33.7881 78.5638 33.8695 78.9121 34.0322C79.2604 34.195 79.5241 34.4277 79.7031 34.7305C79.8822 35.0332 79.9717 35.3978 79.9717 35.8242C79.9717 36.0651 79.9326 36.2979 79.8545 36.5225C79.7796 36.7471 79.6706 36.9701 79.5273 37.1914C79.3841 37.4128 79.2116 37.639 79.0098 37.8701C78.8079 38.098 78.5801 38.3389 78.3262 38.5928L77.252 39.8135H80.1768Z" fill="#D5D5D5"/>
<path d="M74.3516 36.8105V38.0752C74.3516 38.596 74.293 39.0469 74.1758 39.4277C74.0618 39.8086 73.8958 40.1227 73.6777 40.3701C73.4629 40.6175 73.2057 40.8014 72.9062 40.9219C72.61 41.0391 72.2812 41.0977 71.9199 41.0977C71.6302 41.0977 71.36 41.0602 71.1094 40.9854C70.8587 40.9105 70.6325 40.7949 70.4307 40.6387C70.2321 40.4792 70.0612 40.2806 69.918 40.043C69.7747 39.8053 69.6641 39.5221 69.5859 39.1934C69.5111 38.8646 69.4736 38.4919 69.4736 38.0752V36.8105C69.4736 36.2832 69.5306 35.8307 69.6445 35.4531C69.7617 35.0755 69.9294 34.763 70.1475 34.5156C70.3656 34.2682 70.6227 34.0859 70.9189 33.9688C71.2184 33.8516 71.5488 33.793 71.9102 33.793C72.1999 33.793 72.4684 33.8304 72.7158 33.9053C72.9665 33.9801 73.1927 34.0957 73.3945 34.252C73.5964 34.4082 73.7673 34.6051 73.9072 34.8428C74.0505 35.0804 74.1595 35.3636 74.2344 35.6924C74.3125 36.0179 74.3516 36.3906 74.3516 36.8105ZM72.8281 38.2656V36.6104C72.8281 36.3662 72.8135 36.1546 72.7842 35.9756C72.7581 35.7933 72.7191 35.6387 72.667 35.5117C72.6182 35.3848 72.5563 35.2822 72.4814 35.2041C72.4066 35.126 72.3203 35.069 72.2227 35.0332C72.1283 34.9941 72.0241 34.9746 71.9102 34.9746C71.7669 34.9746 71.6383 35.0039 71.5244 35.0625C71.4105 35.1211 71.3145 35.2139 71.2363 35.3408C71.1582 35.4645 71.098 35.6322 71.0557 35.8438C71.0166 36.0521 70.9971 36.3076 70.9971 36.6104V38.2656C70.9971 38.5098 71.0101 38.723 71.0361 38.9053C71.0654 39.0876 71.1045 39.2438 71.1533 39.374C71.2054 39.501 71.2689 39.6051 71.3438 39.6865C71.4186 39.7646 71.5049 39.8216 71.6025 39.8574C71.7002 39.8932 71.806 39.9111 71.9199 39.9111C72.0632 39.9111 72.1901 39.8835 72.3008 39.8281C72.4115 39.7695 72.5059 39.6768 72.584 39.5498C72.6654 39.4196 72.7256 39.2487 72.7646 39.0371C72.807 38.8255 72.8281 38.5684 72.8281 38.2656Z" fill="#D5D5D5"/>
<path d="M68.6338 39.8135V41H63.7217V39.9941L66.0166 37.5625C66.2314 37.3151 66.4023 37.097 66.5293 36.9082C66.6595 36.7194 66.7539 36.5485 66.8125 36.3955C66.8711 36.2393 66.9004 36.096 66.9004 35.9658C66.9004 35.7542 66.8662 35.5752 66.7979 35.4287C66.7327 35.2822 66.6367 35.1699 66.5098 35.0918C66.3828 35.0137 66.2282 34.9746 66.0459 34.9746C65.8506 34.9746 65.6829 35.0251 65.543 35.126C65.403 35.2269 65.2956 35.3669 65.2207 35.5459C65.1458 35.7217 65.1084 35.9219 65.1084 36.1465H63.5752C63.5752 35.7135 63.6794 35.3197 63.8877 34.9648C64.096 34.6068 64.3874 34.3219 64.7617 34.1104C65.1361 33.8955 65.5739 33.7881 66.0752 33.7881C66.5895 33.7881 67.0208 33.8695 67.3691 34.0322C67.7174 34.195 67.9811 34.4277 68.1602 34.7305C68.3392 35.0332 68.4287 35.3978 68.4287 35.8242C68.4287 36.0651 68.3896 36.2979 68.3115 36.5225C68.2367 36.7471 68.1276 36.9701 67.9844 37.1914C67.8411 37.4128 67.6686 37.639 67.4668 37.8701C67.265 38.098 67.0371 38.3389 66.7832 38.5928L65.709 39.8135H68.6338Z" fill="#D5D5D5"/>
<path d="M58.4434 40.2773C58.4434 40.056 58.5215 39.8704 58.6777 39.7207C58.8372 39.571 59.0439 39.4961 59.2979 39.4961C59.555 39.4961 59.7601 39.571 59.9131 39.7207C60.0693 39.8704 60.1475 40.056 60.1475 40.2773C60.1475 40.4954 60.0693 40.6794 59.9131 40.8291C59.7601 40.9788 59.555 41.0537 59.2979 41.0537C59.0439 41.0537 58.8372 40.9788 58.6777 40.8291C58.5215 40.6794 58.4434 40.4954 58.4434 40.2773ZM58.4434 36.3125C58.4434 36.0911 58.5215 35.9056 58.6777 35.7559C58.8372 35.6061 59.0439 35.5312 59.2979 35.5312C59.555 35.5312 59.7601 35.6061 59.9131 35.7559C60.0693 35.9056 60.1475 36.0911 60.1475 36.3125C60.1475 36.5306 60.0693 36.7145 59.9131 36.8643C59.7601 37.014 59.555 37.0889 59.2979 37.0889C59.0439 37.0889 58.8372 37.014 58.6777 36.8643C58.5215 36.7145 58.4434 36.5306 58.4434 36.3125Z" fill="#D5D5D5"/>
<path d="M56.085 33.8857V41H54.5566V35.624L52.9062 36.127V34.9453L55.9336 33.8857H56.085Z" fill="#D5D5D5"/>
<path d="M51.6367 36.8105V38.0752C51.6367 38.596 51.5781 39.0469 51.4609 39.4277C51.347 39.8086 51.181 40.1227 50.9629 40.3701C50.748 40.6175 50.4909 40.8014 50.1914 40.9219C49.8952 41.0391 49.5664 41.0977 49.2051 41.0977C48.9154 41.0977 48.6452 41.0602 48.3945 40.9854C48.1439 40.9105 47.9176 40.7949 47.7158 40.6387C47.5173 40.4792 47.3464 40.2806 47.2031 40.043C47.0599 39.8053 46.9492 39.5221 46.8711 39.1934C46.7962 38.8646 46.7588 38.4919 46.7588 38.0752V36.8105C46.7588 36.2832 46.8158 35.8307 46.9297 35.4531C47.0469 35.0755 47.2145 34.763 47.4326 34.5156C47.6507 34.2682 47.9079 34.0859 48.2041 33.9688C48.5036 33.8516 48.834 33.793 49.1953 33.793C49.485 33.793 49.7536 33.8304 50.001 33.9053C50.2516 33.9801 50.4779 34.0957 50.6797 34.252C50.8815 34.4082 51.0524 34.6051 51.1924 34.8428C51.3356 35.0804 51.4447 35.3636 51.5195 35.6924C51.5977 36.0179 51.6367 36.3906 51.6367 36.8105ZM50.1133 38.2656V36.6104C50.1133 36.3662 50.0986 36.1546 50.0693 35.9756C50.0433 35.7933 50.0042 35.6387 49.9521 35.5117C49.9033 35.3848 49.8415 35.2822 49.7666 35.2041C49.6917 35.126 49.6055 35.069 49.5078 35.0332C49.4134 34.9941 49.3092 34.9746 49.1953 34.9746C49.0521 34.9746 48.9235 35.0039 48.8096 35.0625C48.6956 35.1211 48.5996 35.2139 48.5215 35.3408C48.4434 35.4645 48.3831 35.6322 48.3408 35.8438C48.3018 36.0521 48.2822 36.3076 48.2822 36.6104V38.2656C48.2822 38.5098 48.2952 38.723 48.3213 38.9053C48.3506 39.0876 48.3896 39.2438 48.4385 39.374C48.4906 39.501 48.554 39.6051 48.6289 39.6865C48.7038 39.7646 48.79 39.8216 48.8877 39.8574C48.9854 39.8932 49.0911 39.9111 49.2051 39.9111C49.3483 39.9111 49.4753 39.8835 49.5859 39.8281C49.6966 39.7695 49.791 39.6768 49.8691 39.5498C49.9505 39.4196 50.0107 39.2487 50.0498 39.0371C50.0921 38.8255 50.1133 38.5684 50.1133 38.2656Z" fill="#D5D5D5"/>
<path d="M45.8652 36.8105V38.0752C45.8652 38.596 45.8066 39.0469 45.6895 39.4277C45.5755 39.8086 45.4095 40.1227 45.1914 40.3701C44.9766 40.6175 44.7194 40.8014 44.4199 40.9219C44.1237 41.0391 43.7949 41.0977 43.4336 41.0977C43.1439 41.0977 42.8737 41.0602 42.623 40.9854C42.3724 40.9105 42.1462 40.7949 41.9443 40.6387C41.7458 40.4792 41.5749 40.2806 41.4316 40.043C41.2884 39.8053 41.1777 39.5221 41.0996 39.1934C41.0247 38.8646 40.9873 38.4919 40.9873 38.0752V36.8105C40.9873 36.2832 41.0443 35.8307 41.1582 35.4531C41.2754 35.0755 41.443 34.763 41.6611 34.5156C41.8792 34.2682 42.1364 34.0859 42.4326 33.9688C42.7321 33.8516 43.0625 33.793 43.4238 33.793C43.7135 33.793 43.9821 33.8304 44.2295 33.9053C44.4801 33.9801 44.7064 34.0957 44.9082 34.252C45.11 34.4082 45.2809 34.6051 45.4209 34.8428C45.5641 35.0804 45.6732 35.3636 45.748 35.6924C45.8262 36.0179 45.8652 36.3906 45.8652 36.8105ZM44.3418 38.2656V36.6104C44.3418 36.3662 44.3271 36.1546 44.2979 35.9756C44.2718 35.7933 44.2327 35.6387 44.1807 35.5117C44.1318 35.3848 44.07 35.2822 43.9951 35.2041C43.9202 35.126 43.834 35.069 43.7363 35.0332C43.6419 34.9941 43.5378 34.9746 43.4238 34.9746C43.2806 34.9746 43.152 35.0039 43.0381 35.0625C42.9242 35.1211 42.8281 35.2139 42.75 35.3408C42.6719 35.4645 42.6117 35.6322 42.5693 35.8438C42.5303 36.0521 42.5107 36.3076 42.5107 36.6104V38.2656C42.5107 38.5098 42.5238 38.723 42.5498 38.9053C42.5791 39.0876 42.6182 39.2438 42.667 39.374C42.7191 39.501 42.7826 39.6051 42.8574 39.6865C42.9323 39.7646 43.0186 39.8216 43.1162 39.8574C43.2139 39.8932 43.3197 39.9111 43.4336 39.9111C43.5768 39.9111 43.7038 39.8835 43.8145 39.8281C43.9251 39.7695 44.0195 39.6768 44.0977 39.5498C44.179 39.4196 44.2393 39.2487 44.2783 39.0371C44.3206 38.8255 44.3418 38.5684 44.3418 38.2656Z" fill="#D5D5D5"/>
<path d="M40.123 33.8906V34.7109L37.418 41H35.8066L38.5117 35.0771H35.0449V33.8906H40.123Z" fill="#D5D5D5"/>
<path d="M34.376 39.8135V41H29.4639V39.9941L31.7588 37.5625C31.9736 37.3151 32.1445 37.097 32.2715 36.9082C32.4017 36.7194 32.4961 36.5485 32.5547 36.3955C32.6133 36.2393 32.6426 36.096 32.6426 35.9658C32.6426 35.7542 32.6084 35.5752 32.54 35.4287C32.4749 35.2822 32.3789 35.1699 32.252 35.0918C32.125 35.0137 31.9704 34.9746 31.7881 34.9746C31.5928 34.9746 31.4251 35.0251 31.2852 35.126C31.1452 35.2269 31.0378 35.3669 30.9629 35.5459C30.888 35.7217 30.8506 35.9219 30.8506 36.1465H29.3174C29.3174 35.7135 29.4215 35.3197 29.6299 34.9648C29.8382 34.6068 30.1296 34.3219 30.5039 34.1104C30.8783 33.8955 31.3161 33.7881 31.8174 33.7881C32.3317 33.7881 32.763 33.8695 33.1113 34.0322C33.4596 34.195 33.7233 34.4277 33.9023 34.7305C34.0814 35.0332 34.1709 35.3978 34.1709 35.8242C34.1709 36.0651 34.1318 36.2979 34.0537 36.5225C33.9788 36.7471 33.8698 36.9701 33.7266 37.1914C33.5833 37.4128 33.4108 37.639 33.209 37.8701C33.0072 38.098 32.7793 38.3389 32.5254 38.5928L31.4512 39.8135H34.376Z" fill="#D5D5D5"/>
<path d="M76.0244 50.8184V44.5H77.5576V52H76.1807L76.0244 50.8184ZM72.7334 49.4219V49.3193C72.7334 48.9189 72.7773 48.5544 72.8652 48.2256C72.9564 47.8936 73.0882 47.6087 73.2607 47.3711C73.4365 47.1302 73.653 46.9447 73.9102 46.8145C74.1673 46.6842 74.4619 46.6191 74.7939 46.6191C75.0999 46.6191 75.3669 46.6875 75.5947 46.8242C75.8226 46.9577 76.0163 47.1465 76.1758 47.3906C76.3385 47.6315 76.4704 47.9163 76.5713 48.2451C76.6722 48.5706 76.7487 48.9238 76.8008 49.3047V49.4805C76.752 49.8451 76.6755 50.1852 76.5713 50.501C76.4704 50.8167 76.3385 51.0951 76.1758 51.3359C76.0163 51.5736 75.821 51.7607 75.5898 51.8975C75.362 52.0309 75.0934 52.0977 74.7842 52.0977C74.4521 52.0977 74.1576 52.0309 73.9004 51.8975C73.6465 51.764 73.4333 51.5768 73.2607 51.3359C73.0882 51.0951 72.9564 50.8118 72.8652 50.4863C72.7773 50.1608 72.7334 49.806 72.7334 49.4219ZM74.2568 49.3193V49.4219C74.2568 49.6302 74.2715 49.8239 74.3008 50.0029C74.3333 50.182 74.3854 50.3398 74.457 50.4766C74.5286 50.6133 74.623 50.7207 74.7402 50.7988C74.8574 50.8737 75.0007 50.9111 75.1699 50.9111C75.3978 50.9111 75.585 50.859 75.7314 50.7549C75.8779 50.6475 75.9886 50.4993 76.0635 50.3105C76.1383 50.1217 76.1774 49.902 76.1807 49.6514V49.1387C76.1807 48.9303 76.1595 48.7432 76.1172 48.5771C76.0749 48.4111 76.0114 48.2712 75.9268 48.1572C75.8454 48.0433 75.7428 47.957 75.6191 47.8984C75.4954 47.8366 75.349 47.8057 75.1797 47.8057C75.0137 47.8057 74.8721 47.8447 74.7549 47.9229C74.6377 47.9977 74.5417 48.1035 74.4668 48.2402C74.3952 48.377 74.3415 48.5381 74.3057 48.7236C74.2731 48.9059 74.2568 49.1045 74.2568 49.3193Z" fill="#D5D5D5"/>
<path d="M69.9087 52.0977C69.4888 52.0977 69.1128 52.0309 68.7808 51.8975C68.4487 51.764 68.1672 51.5801 67.936 51.3457C67.7082 51.1081 67.534 50.8346 67.4136 50.5254C67.2931 50.2161 67.2329 49.8857 67.2329 49.5342V49.3486C67.2329 48.9548 67.2882 48.5918 67.3989 48.2598C67.5096 47.9277 67.6707 47.6396 67.8823 47.3955C68.0972 47.1481 68.3608 46.9577 68.6733 46.8242C68.9858 46.6875 69.3423 46.6191 69.7427 46.6191C70.117 46.6191 70.4507 46.681 70.7437 46.8047C71.0366 46.9251 71.284 47.0993 71.4858 47.3271C71.6877 47.5518 71.8407 47.8236 71.9448 48.1426C72.0522 48.4583 72.106 48.8132 72.106 49.207V49.832H67.8481V48.8506H70.6118V48.7334C70.6118 48.5479 70.5776 48.3851 70.5093 48.2451C70.4442 48.1051 70.3465 47.9977 70.2163 47.9229C70.0894 47.8447 69.9282 47.8057 69.7329 47.8057C69.5474 47.8057 69.3927 47.8447 69.269 47.9229C69.1453 48.001 69.0461 48.1117 68.9712 48.2549C68.8996 48.3949 68.8475 48.5592 68.8149 48.748C68.7824 48.9336 68.7661 49.1338 68.7661 49.3486V49.5342C68.7661 49.7393 68.7938 49.9264 68.8491 50.0957C68.9045 50.265 68.9858 50.4098 69.0933 50.5303C69.2007 50.6507 69.3309 50.7451 69.4839 50.8135C69.6369 50.8818 69.811 50.916 70.0063 50.916C70.2472 50.916 70.4767 50.8704 70.6948 50.7793C70.9129 50.6849 71.1017 50.5384 71.2612 50.3398L71.9741 51.1553C71.8667 51.3115 71.7153 51.4629 71.52 51.6094C71.328 51.7526 71.0968 51.8698 70.8267 51.9609C70.5565 52.0521 70.2505 52.0977 69.9087 52.0977Z" fill="#D5D5D5"/>
<path d="M62.9824 52H61.4492V46.5264C61.4492 46.0674 61.5436 45.68 61.7324 45.3643C61.9245 45.0485 62.1995 44.8092 62.5576 44.6465C62.9157 44.4805 63.347 44.3975 63.8516 44.3975C64.1413 44.3975 64.4196 44.4235 64.6865 44.4756C64.9567 44.5277 65.235 44.596 65.5215 44.6807L65.3066 45.8965C65.1211 45.8411 64.9242 45.7907 64.7158 45.7451C64.5075 45.6995 64.252 45.6768 63.9492 45.6768C63.6367 45.6768 63.3975 45.75 63.2314 45.8965C63.0654 46.0397 62.9824 46.2497 62.9824 46.5264V52ZM64.0225 46.7168V47.7861H60.6729V46.7168H64.0225ZM66.2246 46.7168V52H64.6963V46.7168H66.2246Z" fill="#D5D5D5"/>
<path d="M59.8892 46.7168V52H58.3608V46.7168H59.8892ZM58.2681 45.3496C58.2681 45.1283 58.3462 44.9476 58.5024 44.8076C58.6587 44.6644 58.8638 44.5928 59.1177 44.5928C59.3716 44.5928 59.5767 44.6644 59.7329 44.8076C59.8924 44.9476 59.9722 45.1283 59.9722 45.3496C59.9722 45.5677 59.8924 45.7484 59.7329 45.8916C59.5767 46.0316 59.3716 46.1016 59.1177 46.1016C58.8638 46.1016 58.6587 46.0316 58.5024 45.8916C58.3462 45.7484 58.2681 45.5677 58.2681 45.3496Z" fill="#D5D5D5"/>
<path d="M57.4502 46.7168V47.7861H54.3154V46.7168H57.4502ZM55.0332 45.4082H56.5615V50.3447C56.5615 50.4912 56.5794 50.6035 56.6152 50.6816C56.651 50.7598 56.7096 50.8151 56.791 50.8477C56.8724 50.877 56.9766 50.8916 57.1035 50.8916C57.1947 50.8916 57.2728 50.8883 57.3379 50.8818C57.403 50.8753 57.4632 50.8672 57.5186 50.8574V51.9609C57.3883 52.0033 57.25 52.0358 57.1035 52.0586C56.957 52.0846 56.7975 52.0977 56.625 52.0977C56.2962 52.0977 56.0114 52.0439 55.7705 51.9365C55.5329 51.8291 55.3506 51.6598 55.2236 51.4287C55.0967 51.1943 55.0332 50.89 55.0332 50.5156V45.4082Z" fill="#D5D5D5"/>
<path d="M52.2188 47.9473V52H50.6953V46.7168H52.126L52.2188 47.9473ZM53.7959 46.6777L53.7715 48.0986C53.7064 48.0889 53.6217 48.0807 53.5176 48.0742C53.4134 48.0645 53.3239 48.0596 53.249 48.0596C53.0537 48.0596 52.8844 48.084 52.7412 48.1328C52.6012 48.1784 52.484 48.2467 52.3896 48.3379C52.2985 48.429 52.2301 48.543 52.1846 48.6797C52.139 48.8132 52.1162 48.9678 52.1162 49.1436L51.8281 49.002C51.8281 48.6536 51.8623 48.3346 51.9307 48.0449C51.999 47.7552 52.0983 47.5046 52.2285 47.293C52.3587 47.0781 52.5182 46.9121 52.707 46.7949C52.8958 46.6777 53.1107 46.6191 53.3516 46.6191C53.4297 46.6191 53.5094 46.624 53.5908 46.6338C53.6722 46.6436 53.7406 46.6582 53.7959 46.6777Z" fill="#D5D5D5"/>
<path d="M47.6509 52.0977C47.231 52.0977 46.855 52.0309 46.5229 51.8975C46.1909 51.764 45.9093 51.5801 45.6782 51.3457C45.4504 51.1081 45.2762 50.8346 45.1558 50.5254C45.0353 50.2161 44.9751 49.8857 44.9751 49.5342V49.3486C44.9751 48.9548 45.0304 48.5918 45.1411 48.2598C45.2518 47.9277 45.4129 47.6396 45.6245 47.3955C45.8394 47.1481 46.103 46.9577 46.4155 46.8242C46.728 46.6875 47.0845 46.6191 47.4849 46.6191C47.8592 46.6191 48.1929 46.681 48.4858 46.8047C48.7788 46.9251 49.0262 47.0993 49.228 47.3271C49.4299 47.5518 49.5828 47.8236 49.687 48.1426C49.7944 48.4583 49.8481 48.8132 49.8481 49.207V49.832H45.5903V48.8506H48.354V48.7334C48.354 48.5479 48.3198 48.3851 48.2515 48.2451C48.1864 48.1051 48.0887 47.9977 47.9585 47.9229C47.8315 47.8447 47.6704 47.8057 47.4751 47.8057C47.2896 47.8057 47.1349 47.8447 47.0112 47.9229C46.8875 48.001 46.7882 48.1117 46.7134 48.2549C46.6418 48.3949 46.5897 48.5592 46.5571 48.748C46.5246 48.9336 46.5083 49.1338 46.5083 49.3486V49.5342C46.5083 49.7393 46.536 49.9264 46.5913 50.0957C46.6466 50.265 46.728 50.4098 46.8354 50.5303C46.9429 50.6507 47.0731 50.7451 47.2261 50.8135C47.3791 50.8818 47.5532 50.916 47.7485 50.916C47.9894 50.916 48.2189 50.8704 48.437 50.7793C48.6551 50.6849 48.8439 50.5384 49.0034 50.3398L49.7163 51.1553C49.6089 51.3115 49.4575 51.4629 49.2622 51.6094C49.0702 51.7526 48.839 51.8698 48.5688 51.9609C48.2987 52.0521 47.9927 52.0977 47.6509 52.0977Z" fill="#D5D5D5"/>
<path d="M42.6729 49.6172H44.2549C44.2288 50.1055 44.0954 50.5368 43.8545 50.9111C43.6169 51.2822 43.2865 51.5736 42.8633 51.7852C42.4401 51.9935 41.9372 52.0977 41.3545 52.0977C40.889 52.0977 40.4723 52.0179 40.1045 51.8584C39.7367 51.6989 39.4242 51.471 39.167 51.1748C38.9131 50.8753 38.7178 50.5156 38.5811 50.0957C38.4476 49.6725 38.3809 49.1956 38.3809 48.665V48.2305C38.3809 47.6999 38.4508 47.223 38.5908 46.7998C38.7308 46.3766 38.931 46.0153 39.1914 45.7158C39.4518 45.4163 39.7643 45.1868 40.1289 45.0273C40.4935 44.8678 40.9004 44.7881 41.3496 44.7881C41.9551 44.7881 42.4661 44.8971 42.8828 45.1152C43.2995 45.3333 43.6217 45.6328 43.8496 46.0137C44.0807 46.3945 44.2191 46.8291 44.2646 47.3174H42.6777C42.6647 47.0407 42.6126 46.8079 42.5215 46.6191C42.4303 46.4271 42.2904 46.2822 42.1016 46.1846C41.9128 46.0869 41.6621 46.0381 41.3496 46.0381C41.1217 46.0381 40.9215 46.0804 40.749 46.165C40.5798 46.2497 40.4382 46.3815 40.3242 46.5605C40.2135 46.7396 40.1305 46.9674 40.0752 47.2441C40.0199 47.5176 39.9922 47.8431 39.9922 48.2207V48.665C39.9922 49.0394 40.0166 49.3633 40.0654 49.6367C40.1143 49.9102 40.1924 50.1364 40.2998 50.3154C40.4105 50.4945 40.5521 50.6279 40.7246 50.7158C40.8971 50.8037 41.1071 50.8477 41.3545 50.8477C41.6377 50.8477 41.8737 50.8037 42.0625 50.7158C42.2513 50.6247 42.3962 50.488 42.4971 50.3057C42.598 50.1234 42.6566 49.8939 42.6729 49.6172Z" fill="#D5D5D5"/>
<path d="M85.645 54.3066C85.888 54.0366 86.103 53.8196 86.255 53.6706L86.433 53.4976L86.492 53.4346C86.492 53.4346 86.565 53.5266 86.667 53.6876C86.8077 53.9066 86.9362 54.1333 87.052 54.3666C87.4149 55.0715 87.6447 55.8373 87.73 56.6256C87.7725 57.0761 87.7284 57.5306 87.6 57.9646C87.4686 58.4394 87.2524 58.8866 86.962 59.2846C86.886 59.3906 86.803 59.4946 86.715 59.5966C86.6168 59.6977 86.5129 59.7932 86.404 59.8826C86.1707 60.0778 85.9215 60.2531 85.659 60.4066C85.0324 60.7656 84.357 61.0318 83.654 61.1966C83.2493 60.9867 82.9262 60.6478 82.736 60.2335C82.5458 59.8192 82.4993 59.3533 82.604 58.9096C82.7043 58.4626 82.8776 58.0352 83.117 57.6446C83.178 57.5396 83.244 57.4356 83.312 57.3306C83.38 57.2256 83.433 57.1156 83.498 57.0106C83.6313 56.7979 83.7713 56.5899 83.918 56.3866C84.2071 55.994 84.5165 55.6169 84.845 55.2566C85.122 54.8946 85.397 54.5726 85.645 54.3046" fill="white"/>
<path d="M90.0398 52.5791L90.1398 52.2651C90.273 51.8635 90.4344 51.4719 90.6228 51.0931C90.7088 50.9151 90.8078 50.7481 90.8848 50.5841C90.9618 50.4201 91.0258 50.2631 91.0918 50.1221C91.2406 49.8073 91.4075 49.5015 91.5918 49.2061C91.8886 49.4637 92.1695 49.7392 92.4328 50.0311C92.6989 50.3225 92.9464 50.6304 93.1738 50.9531C93.4352 51.3092 93.6512 51.6965 93.8168 52.1061C93.9804 52.5166 94.0815 52.9495 94.1168 53.3901C94.1355 53.6119 94.1315 53.835 94.1048 54.0561C94.094 54.1684 94.0743 54.2798 94.0458 54.3891C94.0118 54.4974 93.9714 54.6036 93.9248 54.7071C93.7138 55.1667 93.4069 55.5758 93.0248 55.9071C92.8026 56.1075 92.5576 56.2811 92.2948 56.4241C91.9806 56.5874 91.6543 56.7261 91.3188 56.8391C90.8777 56.6887 90.4892 56.4147 90.1996 56.0496C89.9101 55.6845 89.7317 55.2438 89.6858 54.7801C89.634 54.3586 89.6553 53.9313 89.7488 53.5171C89.7946 53.3033 89.8537 53.0925 89.9258 52.8861C89.9618 52.7861 89.9988 52.6791 90.0408 52.5761" fill="white"/>
<path d="M98.3209 51.5509C98.0768 51.7412 97.8157 51.9085 97.5409 52.0509C97.057 51.9465 96.6036 51.7321 96.2158 51.4243C95.8281 51.1165 95.5164 50.7235 95.3049 50.2759C95.2289 50.0909 95.1489 49.8919 95.0859 49.6889C95.0256 49.4878 94.9798 49.2826 94.9489 49.0749C94.8934 48.667 94.8803 48.2545 94.9099 47.8439C94.8994 47.4522 94.9198 47.0604 94.9709 46.6719C95.0149 46.3089 95.0939 45.9829 95.1129 45.6919C95.1489 45.3755 95.2074 45.062 95.2879 44.7539C95.6552 44.969 96.0113 45.2027 96.3549 45.4539C96.7045 45.7035 97.0412 45.9705 97.3639 46.2539C97.5369 46.4079 97.7229 46.5749 97.8799 46.7449C98.0369 46.9149 98.1949 47.0949 98.3369 47.2799C98.6263 47.6445 98.8689 48.044 99.0589 48.4689C99.1488 48.6747 99.2207 48.8878 99.2739 49.1059C99.3078 49.3155 99.3162 49.5283 99.2989 49.7399C99.264 50.1857 99.113 50.6145 98.8609 50.9839C98.715 51.2025 98.5315 51.3934 98.3189 51.5479" fill="white"/>
<path d="M102.936 46.2515C102.767 46.4597 102.575 46.6488 102.365 46.8155C101.312 46.695 100.343 46.1806 99.6529 45.3755C99.5809 45.2905 99.5159 45.2025 99.4529 45.1145C99.3899 45.0265 99.3209 44.9325 99.2529 44.8385C99.1326 44.6532 99.0238 44.4609 98.9269 44.2625C98.7441 43.8843 98.6014 43.4882 98.5009 43.0805C98.3772 42.7062 98.279 42.324 98.2069 41.9365C98.1719 41.7565 98.1479 41.5845 98.1259 41.4225C98.1131 41.2692 98.0924 41.1166 98.0639 40.9655C98.0085 40.6539 97.9751 40.3387 97.9639 40.0225C97.9639 40.0225 98.4709 40.2295 99.1869 40.6025C99.5459 40.7895 99.9569 41.0165 100.387 41.2815C100.815 41.5478 101.224 41.8446 101.61 42.1695C101.992 42.4907 102.341 42.8488 102.653 43.2385C102.803 43.421 102.935 43.6176 103.048 43.8255C103.144 44.0173 103.22 44.2183 103.276 44.4255C103.387 44.8285 103.383 45.2545 103.265 45.6555C103.195 45.8752 103.083 46.0791 102.935 46.2555" fill="white"/>
<path d="M101.879 39.7503C101.514 39.4472 101.179 39.1089 100.879 38.7403C100.603 38.3912 100.359 38.0184 100.148 37.6263C99.7691 36.9767 99.4556 36.291 99.2121 35.5793C98.9951 35.0223 98.8901 34.6533 98.8901 34.6533C98.8901 34.6533 99.4281 34.8193 100.204 35.1273C100.586 35.2803 101.05 35.4723 101.504 35.6933C101.979 35.9245 102.441 36.1799 102.89 36.4583C103.774 36.9473 104.525 37.6445 105.079 38.4893C105.292 38.8475 105.408 39.2555 105.413 39.6723C105.375 40.1193 105.19 40.5411 104.887 40.8723C103.788 40.8396 102.731 40.4452 101.879 39.7503Z" fill="white"/>
<path d="M103.587 34.6181C103.379 34.4872 103.178 34.3443 102.987 34.1901C102.787 34.0391 102.596 33.8751 102.418 33.7101C102.073 33.3878 101.755 33.0384 101.467 32.6651C101.328 32.4871 101.202 32.3131 101.079 32.1361C100.956 31.9591 100.832 31.7781 100.722 31.6041C100.503 31.2611 100.322 30.9381 100.177 30.6621C99.8978 30.1071 99.7368 29.7451 99.7368 29.7451C99.7368 29.7451 100.286 29.8821 101.074 30.1511C102.037 30.4762 102.976 30.8685 103.884 31.3251C104.375 31.5737 104.848 31.8557 105.3 32.1691C105.701 32.451 106.066 32.7819 106.386 33.1541C106.667 33.4709 106.866 33.8527 106.963 34.2651C107.024 34.6763 106.945 35.0962 106.739 35.4571C105.627 35.5039 104.528 35.2112 103.587 34.6181Z" fill="white"/>
<path d="M107.292 29.6959C106.195 29.7945 105.094 29.5666 104.126 29.0409C103.684 28.8045 103.267 28.5248 102.88 28.2059C102.5 27.9109 102.142 27.5884 101.81 27.2409C101.487 26.9129 101.226 26.5739 100.957 26.2729C100.688 25.9719 100.471 25.6849 100.293 25.4409C100.115 25.1969 99.9779 24.9929 99.8839 24.8499L99.7349 24.6299L100.109 24.7009C100.352 24.7459 100.68 24.8219 101.078 24.9209C102.058 25.1668 103.02 25.4802 103.957 25.8589C104.215 25.9649 104.472 26.0799 104.723 26.1999C104.974 26.3199 105.202 26.4519 105.428 26.5899C105.858 26.8437 106.257 27.1456 106.619 27.4899C106.944 27.7445 107.183 28.0929 107.303 28.4879C107.423 28.8829 107.419 29.3054 107.291 29.6979" fill="white"/>
<path d="M103.257 22.9501C102.357 22.5526 101.509 22.0465 100.733 21.4431C100.552 21.3051 100.387 21.1631 100.22 21.0251C100.053 20.8871 99.8777 20.7601 99.7197 20.6311C99.4087 20.3741 99.1457 20.1311 98.9277 19.9251C98.7097 19.7191 98.5277 19.5501 98.3987 19.4321L98.1987 19.2471C98.1987 19.2471 98.7387 19.2811 99.5577 19.3901C100.552 19.5256 101.535 19.7355 102.499 20.0181C103.035 20.1718 103.56 20.3605 104.072 20.5831C104.531 20.792 104.966 21.0484 105.372 21.3481C105.553 21.4842 105.722 21.6347 105.879 21.7981C106.024 21.9414 106.144 22.1085 106.234 22.2921C106.409 22.6306 106.464 23.0183 106.39 23.3921C105.322 23.5334 104.237 23.3791 103.251 22.9461" fill="white"/>
<path d="M95.8258 14.6628C96.2258 14.6688 96.7038 14.6888 97.2258 14.7248C97.7478 14.7608 98.2738 14.8248 98.8308 14.9178C99.3896 15.0065 99.9431 15.126 100.489 15.2758C100.761 15.3528 101.026 15.4338 101.284 15.5268C101.523 15.6162 101.757 15.7207 101.984 15.8398C102.847 16.2968 103.548 16.8918 103.578 17.6488C102.56 17.8883 101.498 17.8586 100.495 17.5628C99.5041 17.3047 98.5472 16.9312 97.6438 16.4498C96.8859 16.0863 96.1487 15.681 95.4358 15.2358C94.8518 14.9038 94.5098 14.6698 94.5098 14.6698C94.5098 14.6698 95.0278 14.6448 95.8348 14.6628" fill="white"/>
<path d="M90.6749 10.2494C91.6576 10.1825 92.6437 10.1788 93.6269 10.2384C94.7461 10.2924 95.8544 10.4838 96.9269 10.8084C97.798 11.0377 98.5509 11.5864 99.0359 12.3454C98.5873 12.5303 98.1112 12.6397 97.6269 12.6694C97.1074 12.7046 96.5858 12.6868 96.0699 12.6164C95.5406 12.5457 95.0165 12.4404 94.5009 12.3014C93.9859 12.1644 93.5009 12.0014 92.9859 11.8384C91.9859 11.5074 91.1299 11.1324 90.4749 10.8474C89.8199 10.5624 89.3999 10.3614 89.3999 10.3614C89.3999 10.3614 89.8999 10.2994 90.6769 10.2494" fill="white"/>
<path d="M91.4341 6.17217C92.2891 6.39029 93.0337 6.9162 93.5251 7.64917C91.8841 8.38217 89.5341 7.83617 87.6551 7.14917C86.8121 6.84824 85.985 6.50446 85.1771 6.11917C84.5461 5.81917 84.1631 5.60617 84.1631 5.60617C85.524 5.49053 86.8919 5.48217 88.2541 5.58117C89.3356 5.64194 90.4051 5.83917 91.4371 6.16817" fill="white"/>
<path d="M76.6689 64.214C79.7789 63.5548 82.8454 62.7049 85.8509 61.669C92.5926 58.7781 98.4847 54.214 102.969 48.409C105.378 45.0961 107.01 41.283 107.743 37.253C108.595 33.9279 108.873 30.4816 108.564 27.063C107.318 17.681 98.9899 9.5 88.0769 2.727C89.5712 3.30867 91.0156 4.01099 92.3959 4.827C92.2969 4.70995 92.2082 4.58447 92.1309 4.452C91.7922 3.84393 91.6126 3.16007 91.6089 2.464C91.616 1.62107 91.7752 0.786334 92.0789 0C92.0789 0 92.4409 0.287 92.9279 0.739C93.5127 1.26693 94.0483 1.84699 94.5279 2.472C95.4859 3.831 95.9469 5.33 94.2349 6.044C95.9609 7.2 97.5409 8.3 98.9849 9.418C98.9639 9.371 98.9459 9.324 98.9299 9.275C98.6945 8.59575 98.6495 7.86499 98.7999 7.162C98.9173 6.54954 99.0962 5.9505 99.3339 5.374C99.4397 5.11495 99.5609 4.8625 99.6969 4.618C99.6969 4.618 100.038 4.942 100.491 5.446C101.009 6.05315 101.459 6.71469 101.834 7.419C102.029 7.77612 102.168 8.16088 102.247 8.56C102.326 8.91461 102.334 9.28146 102.269 9.639C102.205 9.97693 102.037 10.2865 101.789 10.525C101.548 10.7458 101.265 10.9159 100.957 11.025C102.162 12.0561 103.289 13.1759 104.327 14.375C104.333 14.309 104.341 14.242 104.346 14.175C104.365 13.9887 104.399 13.8042 104.446 13.623C104.544 13.2481 104.678 12.8834 104.846 12.534C105.012 12.183 105.217 11.834 105.39 11.534C105.563 11.234 105.746 10.955 105.908 10.722C106.23 10.256 106.479 9.965 106.479 9.965C106.479 9.965 106.754 10.345 107.088 10.927C107.456 11.6287 107.729 12.3758 107.902 13.149C108.057 13.9427 107.958 14.7652 107.618 15.499C107.271 16.0679 106.724 16.4869 106.085 16.674C106.803 17.734 107.442 18.8449 107.998 19.998C108.073 19.86 108.157 19.727 108.248 19.592C108.485 19.2234 108.749 18.8728 109.037 18.543C109.582 17.9344 110.165 17.3616 110.783 16.828C111.27 16.393 111.626 16.128 111.626 16.128C111.626 16.128 111.659 16.234 111.72 16.419C111.803 16.6697 111.861 16.928 111.894 17.19C111.94 17.509 111.978 17.883 111.994 18.284C112.001 18.484 112.002 18.69 111.994 18.898C111.975 19.1108 111.944 19.3225 111.902 19.532C111.772 20.4039 111.375 21.2142 110.767 21.852C110.319 22.3004 109.761 22.6229 109.149 22.787C109.491 23.8095 109.759 24.8556 109.949 25.917C109.992 25.869 110.037 25.817 110.084 25.776C110.255 25.603 110.443 25.436 110.632 25.276C110.821 25.116 111.006 24.952 111.202 24.797C111.93 24.2357 112.695 23.7226 113.49 23.261C113.817 23.07 114.099 22.918 114.285 22.81L114.585 22.647C114.591 22.7469 114.591 22.8471 114.585 22.947C114.57 23.132 114.548 23.398 114.504 23.717C114.46 24.036 114.395 24.407 114.298 24.8C114.19 25.2201 114.04 25.6284 113.851 26.019C113.657 26.4409 113.423 26.8428 113.151 27.219C112.857 27.6016 112.513 27.943 112.128 28.234C111.585 28.6425 110.957 28.9241 110.291 29.058C110.34 30.1552 110.32 31.2543 110.232 32.349C110.382 32.204 110.543 32.061 110.71 31.921C111.121 31.5805 111.553 31.2671 112.005 30.983C112.848 30.4571 113.725 29.9874 114.63 29.577C115.368 29.234 115.865 29.033 115.865 29.033C115.807 29.389 115.718 29.7393 115.6 30.08C115.5 30.391 115.365 30.752 115.2 31.137C115.117 31.33 115.026 31.528 114.923 31.73C114.82 31.932 114.694 32.145 114.564 32.352C114.298 32.7803 113.994 33.1842 113.657 33.559C113.31 33.9538 112.905 34.2943 112.457 34.569C111.675 35.0707 110.772 35.351 109.843 35.38C109.606 36.6869 109.303 37.9809 108.935 39.257C108.967 39.221 108.997 39.188 109.035 39.157C109.888 38.395 110.839 37.75 111.862 37.239C112.392 36.962 112.933 36.71 113.444 36.485C113.955 36.26 114.41 36.063 114.819 35.904C115.629 35.579 116.183 35.396 116.183 35.396C116.061 35.7735 115.915 36.1429 115.747 36.502C115.323 37.3437 114.809 38.1367 114.214 38.867C113.837 39.2953 113.428 39.6938 112.99 40.059C112.545 40.4397 112.053 40.762 111.527 41.018C110.498 41.537 109.339 41.7389 108.195 41.598C108.14 41.762 108.082 41.923 108.024 42.084C107.608 43.2534 107.104 44.3899 106.518 45.484C106.628 45.399 106.744 45.315 106.863 45.234C107.106 45.067 107.371 44.91 107.647 44.758C107.923 44.606 108.187 44.458 108.476 44.312C109.05 44.026 109.667 43.763 110.287 43.526C110.907 43.289 111.544 43.071 112.102 42.878C112.66 42.685 113.202 42.522 113.653 42.386C114.568 42.116 115.184 41.968 115.184 41.968C115.184 41.968 114.922 42.428 114.45 43.092C114.155 43.4818 113.838 43.8538 113.499 44.206C113.099 44.6354 112.677 45.0427 112.233 45.426C111.72 45.8355 111.18 46.2106 110.618 46.549C110.335 46.718 110.047 46.875 109.753 47.017C109.605 47.0877 109.457 47.1543 109.31 47.217C109.15 47.279 108.993 47.338 108.837 47.39C107.683 47.8175 106.429 47.9015 105.228 47.632C104.356 48.9303 103.375 50.1515 102.294 51.282C102.472 51.182 102.657 51.088 102.852 51C103.157 50.86 103.481 50.729 103.813 50.6C104.128 50.471 104.459 50.352 104.798 50.236C105.473 50.008 106.189 49.809 106.898 49.63C107.254 49.543 107.609 49.46 107.958 49.381L108.946 49.158C109.581 49.019 110.176 48.902 110.684 48.809C111.704 48.622 112.384 48.529 112.384 48.529C112.384 48.529 111.967 48.98 111.265 49.623C110.846 50.0026 110.401 50.3538 109.935 50.674C109.417 51.047 108.842 51.431 108.235 51.795C107.578 52.1562 106.9 52.4784 106.205 52.76C105.859 52.901 105.505 53.028 105.16 53.139C104.814 53.2541 104.461 53.3463 104.103 53.415C102.844 53.7254 101.521 53.6537 100.303 53.209C99.2029 54.221 98.0489 55.242 96.8239 56.24L96.9739 56.193C97.1549 56.14 97.3369 56.093 97.5229 56.045C97.7089 55.997 97.8799 55.945 98.0649 55.902C98.4309 55.81 98.8089 55.729 99.1929 55.653C99.9589 55.506 100.755 55.388 101.539 55.293C102.339 55.204 103.064 55.112 103.764 55.048C104.464 54.984 105.104 54.933 105.655 54.895C106.755 54.821 107.477 54.804 107.477 54.804C107.477 54.804 106.89 55.216 105.945 55.785C105.709 55.927 105.451 56.085 105.175 56.238C104.899 56.391 104.568 56.546 104.241 56.704C103.58 57.018 102.858 57.337 102.11 57.632C101.921 57.705 101.737 57.778 101.541 57.846C101.345 57.914 101.141 57.974 100.941 58.035C100.541 58.157 100.134 58.269 99.7329 58.366C98.9618 58.5629 98.1769 58.7016 97.3849 58.781C96.2591 58.9141 95.1178 58.7678 94.0619 58.355C93.0619 59.074 92.0109 59.765 90.9209 60.418C91.2509 60.382 91.5859 60.35 91.9209 60.325C92.7459 60.264 93.6139 60.254 94.4049 60.225C96.0099 60.188 97.5499 60.239 98.6899 60.298C99.2609 60.327 99.7289 60.359 100.054 60.383L100.554 60.42L100.428 60.483C100.345 60.525 100.214 60.583 100.051 60.65C99.7249 60.793 99.2509 60.992 98.6759 61.218C98.1009 61.444 97.4229 61.704 96.6759 61.959C95.9089 62.195 95.0759 62.426 94.2179 62.632C93.7919 62.732 93.3569 62.832 92.9289 62.914C92.7109 62.958 92.4959 62.997 92.2799 63.036C92.0639 63.075 91.8379 63.097 91.6229 63.124C90.7894 63.2275 89.9498 63.2746 89.1099 63.265C88.1715 63.276 87.2399 63.1031 86.3679 62.756C85.9606 62.9327 85.5469 63.1027 85.1269 63.266C85.0575 63.2979 84.9812 63.3119 84.9049 63.307C82.8559 64.0626 80.7449 64.6381 78.5959 65.027" fill="white"/>
</g>
<defs>
<clipPath id="clip0_3805_37">
<rect width="116.2" height="65.024" fill="white"/>
</clipPath>
</defs>
</svg>
